<svg xmlns="http://www.w3.org/2000/svg" xmlns:svg="http://www.w3.org/2000/svg" xmlns:xlink="http://www.w3.org/1999/xlink" id="svg5692" width="24" height="24" version="1.1"><title id="title2829">GIS icon theme 0.2</title><defs id="defs5694"><linearGradient id="linearGradient3978"><stop style="stop-color:#231f20;stop-opacity:1" id="stop3980" offset="0"/><stop style="stop-color:#231f20;stop-opacity:0" id="stop3982" offset="1"/></linearGradient><linearGradient id="linearGradient3970"><stop style="stop-color:#231f20;stop-opacity:1" id="stop3972" offset="0"/><stop style="stop-color:#231f20;stop-opacity:0" id="stop3974" offset="1"/></linearGradient><linearGradient id="linearGradient3962"><stop style="stop-color:#231f20;stop-opacity:1" id="stop3964" offset="0"/><stop style="stop-color:#231f20;stop-opacity:0" id="stop3966" offset="1"/></linearGradient><linearGradient id="linearGradient3954"><stop style="stop-color:#231f20;stop-opacity:1" id="stop3956" offset="0"/><stop style="stop-color:#231f20;stop-opacity:0" id="stop3958" offset="1"/></linearGradient><linearGradient id="linearGradient3946"><stop style="stop-color:#231f20;stop-opacity:1" id="stop3948" offset="0"/><stop style="stop-color:#231f20;stop-opacity:0" id="stop3950" offset="1"/></linearGradient><linearGradient id="linearGradient3938"><stop style="stop-color:#231f20;stop-opacity:1" id="stop3940" offset="0"/><stop style="stop-color:#231f20;stop-opacity:0" id="stop3942" offset="1"/></linearGradient><linearGradient id="linearGradient3930"><stop style="stop-color:#176fc1;stop-opacity:1" id="stop3932" offset="0"/><stop style="stop-color:#176fc1;stop-opacity:0" id="stop3934" offset="1"/></linearGradient><linearGradient id="linearGradient3922"><stop style="stop-color:#176fc1;stop-opacity:1" id="stop3924" offset="0"/><stop style="stop-color:#176fc1;stop-opacity:0" id="stop3926" offset="1"/></linearGradient><linearGradient id="linearGradient3914"><stop style="stop-color:#176fc1;stop-opacity:1" id="stop3916" offset="0"/><stop style="stop-color:#176fc1;stop-opacity:0" id="stop3918" offset="1"/></linearGradient><linearGradient id="linearGradient3906"><stop style="stop-color:#176fc1;stop-opacity:1" id="stop3908" offset="0"/><stop style="stop-color:#176fc1;stop-opacity:0" id="stop3910" offset="1"/></linearGradient><linearGradient id="linearGradient3898"><stop style="stop-color:#176fc1;stop-opacity:1" id="stop3900" offset="0"/><stop style="stop-color:#176fc1;stop-opacity:0" id="stop3902" offset="1"/></linearGradient><linearGradient id="linearGradient3890"><stop style="stop-color:#176fc1;stop-opacity:1" id="stop3892" offset="0"/><stop style="stop-color:#176fc1;stop-opacity:0" id="stop3894" offset="1"/></linearGradient><linearGradient id="linearGradient3896" x1="7.42" x2="16.694" y1="9.619" y2="9.619" gradientUnits="userSpaceOnUse" xlink:href="#linearGradient3890"/><linearGradient id="linearGradient3904" x1="7.42" x2="16.69" y1="14.456" y2="14.456" gradientUnits="userSpaceOnUse" xlink:href="#linearGradient3898"/><linearGradient id="linearGradient3912" x1="3.354" x2="10.591" y1="19.294" y2="19.294" gradientUnits="userSpaceOnUse" xlink:href="#linearGradient3906"/><linearGradient id="linearGradient3920" x1="13.541" x2="20.791" y1="19.28" y2="19.28" gradientUnits="userSpaceOnUse" xlink:href="#linearGradient3914"/><linearGradient id="linearGradient3928" x1="13.528" x2="20.757" y1="4.781" y2="4.781" gradientUnits="userSpaceOnUse" xlink:href="#linearGradient3922"/><linearGradient id="linearGradient3936" x1="3.318" x2="10.427" y1="4.789" y2="4.789" gradientUnits="userSpaceOnUse" xlink:href="#linearGradient3930"/><linearGradient id="linearGradient3944" x1="8.492" x2="15.651" y1="4.834" y2="4.834" gradientUnits="userSpaceOnUse" xlink:href="#linearGradient3938"/><linearGradient id="linearGradient3952" x1="16.67" x2="22.956" y1="9.429" y2="9.429" gradientUnits="userSpaceOnUse" xlink:href="#linearGradient3946"/><linearGradient id="linearGradient3960" x1="16.628" x2="22.956" y1="14.656" y2="14.656" gradientUnits="userSpaceOnUse" xlink:href="#linearGradient3954"/><linearGradient id="linearGradient3968" x1="8.385" x2="15.607" y1="19.257" y2="19.257" gradientUnits="userSpaceOnUse" xlink:href="#linearGradient3962"/><linearGradient id="linearGradient3976" x1="1.145" x2="7.473" y1="9.41" y2="9.41" gradientUnits="userSpaceOnUse" xlink:href="#linearGradient3970"/><linearGradient id="linearGradient3984" x1="1.131" x2="7.399" y1="14.659" y2="14.659" gradientUnits="userSpaceOnUse" xlink:href="#linearGradient3978"/><linearGradient id="linearGradient4078" x1="3.318" x2="10.427" y1="4.789" y2="4.789" gradientUnits="userSpaceOnUse" xlink:href="#linearGradient3930"/><linearGradient id="linearGradient4080" x1="7.42" x2="16.694" y1="9.619" y2="9.619" gradientUnits="userSpaceOnUse" xlink:href="#linearGradient3890"/><linearGradient id="linearGradient4082" x1="7.42" x2="16.69" y1="14.456" y2="14.456" gradientUnits="userSpaceOnUse" xlink:href="#linearGradient3898"/><linearGradient id="linearGradient4084" x1="3.354" x2="10.591" y1="19.294" y2="19.294" gradientUnits="userSpaceOnUse" xlink:href="#linearGradient3906"/><linearGradient id="linearGradient4086" x1="13.528" x2="20.757" y1="4.781" y2="4.781" gradientUnits="userSpaceOnUse" xlink:href="#linearGradient3922"/><linearGradient id="linearGradient4088" x1="13.541" x2="20.791" y1="19.28" y2="19.28" gradientUnits="userSpaceOnUse" xlink:href="#linearGradient3914"/><linearGradient id="linearGradient4090" x1="8.492" x2="15.651" y1="4.834" y2="4.834" gradientUnits="userSpaceOnUse" xlink:href="#linearGradient3938"/><linearGradient id="linearGradient4092" x1="16.67" x2="22.956" y1="9.429" y2="9.429" gradientUnits="userSpaceOnUse" xlink:href="#linearGradient3946"/><linearGradient id="linearGradient4094" x1="16.628" x2="22.956" y1="14.656" y2="14.656" gradientUnits="userSpaceOnUse" xlink:href="#linearGradient3954"/><linearGradient id="linearGradient4096" x1="8.385" x2="15.607" y1="19.257" y2="19.257" gradientUnits="userSpaceOnUse" xlink:href="#linearGradient3962"/><linearGradient id="linearGradient4098" x1="1.131" x2="7.399" y1="14.659" y2="14.659" gradientUnits="userSpaceOnUse" xlink:href="#linearGradient3978"/><linearGradient id="linearGradient4100" x1="1.145" x2="7.473" y1="9.41" y2="9.41" gradientUnits="userSpaceOnUse" xlink:href="#linearGradient3970"/></defs><metadata id="metadata5697"/><g id="layer2" transform="translate(0,-8)" style="display:inline"><g id="g4057" transform="translate(0,-1.4584077)"><g id="g3046" transform="matrix(-1,0,0,-1,24.044194,38.542039)"><path style="fill:none;stroke:#749fcf;stroke-width:.75161648;stroke-linecap:butt;stroke-linejoin:miter;stroke-miterlimit:4;stroke-opacity:1;stroke-dasharray:none" id="path3775" d="m 12.000001,8.7844658 c 7.115911,3.5320562 6.099353,16.7772692 0,19.4263122"/><path style="fill:none;stroke:#749fcf;stroke-width:.75161648;stroke-linecap:butt;stroke-linejoin:miter;stroke-miterlimit:4;stroke-opacity:1;stroke-dasharray:none" id="path3773" d="m 0.81785277,18.497622 22.36429523,0"/><path style="fill:none;stroke:#749fcf;stroke-width:.75161648;stroke-linecap:butt;stroke-linejoin:miter;stroke-miterlimit:4;stroke-opacity:1;stroke-dasharray:none;display:inline" id="path3773-1" d="m 2.1902082,13.186341 c 5.6927292,0.758754 13.8252008,0.758754 19.5179298,0"/><path style="fill:none;stroke:#749fcf;stroke-width:.75161648;stroke-linecap:butt;stroke-linejoin:miter;stroke-miterlimit:4;stroke-opacity:1;stroke-dasharray:none;display:inline" id="path3773-4" d="m 2.1902082,23.808902 c 5.6927292,-0.758754 13.8252008,-0.758754 19.5179298,0"/><path style="fill:none;stroke:#749fcf;stroke-width:.75161648;stroke-linecap:butt;stroke-linejoin:miter;stroke-miterlimit:4;stroke-opacity:1;stroke-dasharray:none" id="path3777" d="m 12.000001,8.7844658 c -6.0993537,2.6490422 -7.1159126,15.8942552 0,19.4263122"/><path style="fill:none;stroke:#5488c4;stroke-width:1.28353083;stroke-miterlimit:4;stroke-opacity:1;stroke-dasharray:none" id="path3003" d="m 6.9656949,13.809332 c 0,6.713955 -5.4228716,12.15669 -12.1123228,12.15669 -6.6894511,0 -12.1123231,-5.442735 -12.1123231,-12.15669 0,-6.7139549 5.422872,-12.1566907 12.1123231,-12.1566907 6.6894512,0 12.1123228,5.4427358 12.1123228,12.1566907 z" transform="matrix(0.94418617,0,0,0.8171557,16.859375,7.2132471)"/></g><path id="path3866" d="M 5.7970172,6.679047 C 4.392306,6.5699628 3.4313752,6.4747796 3.3980136,6.4414179 3.3555718,6.3989761 4.1153805,5.6520979 4.6037745,5.2561769 6.0117663,4.1147756 7.879539,3.254129 9.6513245,2.9303281 10.557736,2.7646778 10.533769,2.707388 9.8476558,3.3996363 9.0069284,4.2478808 8.4757524,5.0253491 7.9370533,6.1961367 L 7.6828719,6.7485639 7.2702746,6.7549887 C 7.0433461,6.7585224 6.3803803,6.7243486 5.7970172,6.679047 z" transform="translate(0,8)" style="opacity:.98999999;fill:url(#linearGradient4078);fill-opacity:1;fill-rule:evenodd;stroke:#fff;stroke-width:.15659353;stroke-linecap:round;stroke-linejoin:round;stroke-miterlimit:4;stroke-opacity:1;stroke-dasharray:none;stroke-dashoffset:0"/><path id="path3868" d="M 7.498966,11.444195 C 7.501041,10.620474 7.8019435,8.9296144 8.1285763,7.9062288 l 0.095988,-0.3007429 0.686576,0.035484 c 0.871603,0.045046 5.6684117,0.04395 6.4363947,-0.00147 l 0.5791,-0.03425 0.139551,0.4776385 c 0.279829,0.9577658 0.457466,1.9956076 0.518589,3.0298526 l 0.03069,0.519281 -4.558485,0 -4.5584859,0 4.731e-4,-0.187825 z" transform="translate(0,8)" style="opacity:.98999999;fill:url(#linearGradient4080);fill-opacity:1;fill-rule:evenodd;stroke:#fff;stroke-width:.15659353;stroke-linecap:round;stroke-linejoin:round;stroke-miterlimit:4;stroke-opacity:1;stroke-dasharray:none;stroke-dashoffset:0"/><path id="path3870" d="M 8.1023808,16.287743 C 7.7725305,15.263365 7.5000422,13.674968 7.4989183,12.77002 l -4.254e-4,-0.342505 4.5565991,0 4.5566,0 -0.02867,0.364602 c -0.08638,1.09839 -0.240431,2.023861 -0.483683,2.905767 -0.08381,0.303835 -0.171533,0.602146 -0.19495,0.662913 l -0.04258,0.110485 -0.789756,-0.03582 c -0.859958,-0.039 -6.5367613,-0.0065 -6.7620432,0.03866 -0.1339698,0.02688 -0.140987,0.02058 -0.207631,-0.186384 l 0,0 z" transform="translate(0,8)" style="opacity:.98999999;fill:url(#linearGradient4082);fill-opacity:1;fill-rule:evenodd;stroke:#fff;stroke-width:.15659353;stroke-linecap:round;stroke-linejoin:round;stroke-miterlimit:4;stroke-opacity:1;stroke-dasharray:none;stroke-dashoffset:0"/><path id="path3872" d="M 9.9512695,21.216983 C 7.8541892,20.852634 5.8883442,19.945112 4.3766856,18.643506 3.7742005,18.12474 3.3624393,17.681985 3.4426199,17.639133 c 0.089067,-0.0476 1.7984364,-0.192595 3.8349021,-0.325285 l 0.3314563,-0.0216 0.3598515,0.738564 c 0.3793942,0.778673 0.7741688,1.404331 1.2328645,1.953904 0.2854917,0.342054 0.8817437,0.935066 1.1905377,1.184067 0.200748,0.161877 0.208482,0.161032 -0.4409625,0.0482 z" transform="translate(0,8)" style="opacity:.98999999;fill:url(#linearGradient4084);fill-opacity:1;fill-rule:evenodd;stroke:#fff;stroke-width:.15659353;stroke-linecap:round;stroke-linejoin:round;stroke-miterlimit:4;stroke-opacity:1;stroke-dasharray:none;stroke-dashoffset:0"/><path id="path3874" d="M 16.425509,6.7154183 C 16.425205,6.6342192 15.941069,5.6537115 15.705354,5.2569061 15.25221,4.494079 14.609613,3.7269046 13.895319,3.0959681 13.706787,2.9294376 13.579013,2.7931854 13.611376,2.7931854 c 0.03236,0 0.286054,0.040596 0.563756,0.090214 2.409577,0.4305265 4.465985,1.4720093 6.095477,3.0870997 0.444395,0.440467 0.459362,0.461363 0.353553,0.4936091 -0.135262,0.041223 -0.805322,0.1037351 -2.342291,0.2185213 -1.389297,0.1037576 -1.856065,0.1120019 -1.856362,0.032788 z" transform="translate(0,8)" style="opacity:.98999999;fill:url(#linearGradient4086);fill-opacity:1;fill-rule:evenodd;stroke:#fff;stroke-width:.15659353;stroke-linecap:round;stroke-linejoin:round;stroke-miterlimit:4;stroke-opacity:1;stroke-dasharray:none;stroke-dashoffset:0"/><path id="path3876" d="m 13.862454,21.066002 c 0.98582,-0.865154 1.852427,-2.107279 2.44537,-3.505 l 0.11891,-0.2803 0.430384,0.02855 c 2.239182,0.148565 3.855433,0.287449 3.855433,0.331296 0,0.05223 -1.033068,1.042697 -1.347922,1.292332 -1.036043,0.821433 -2.454559,1.548283 -3.818144,1.956422 -0.487191,0.145823 -1.288323,0.321254 -1.639837,0.35909 l -0.287262,0.03092 0.243068,-0.213315 z" transform="translate(0,8)" style="opacity:.98999999;fill:url(#linearGradient4088);fill-opacity:1;fill-rule:evenodd;stroke:#fff;stroke-width:.15659353;stroke-linecap:round;stroke-linejoin:round;stroke-miterlimit:4;stroke-opacity:1;stroke-dasharray:none;stroke-dashoffset:0"/><path id="path3878" d="M 9.5018724,6.861589 C 9.0116361,6.8480388 8.5951374,6.8215156 8.5763197,6.8026487 8.4932475,6.7193589 9.2637598,5.3354336 9.745662,4.7023807 10.258728,4.0283891 11.064066,3.3125044 11.72503,2.9428724 l 0.294423,-0.1646506 0.225442,0.1245123 c 0.957104,0.5286108 1.857021,1.3899663 2.575136,2.4647924 0.363124,0.5434996 0.800594,1.3832189 0.748057,1.4358904 -0.07835,0.078549 -3.976554,0.1159307 -6.0662156,0.058172 l 0,0 z" transform="translate(0,8)" style="opacity:.98999999;fill:url(#linearGradient4090);fill-opacity:1;fill-rule:evenodd;stroke:#fff;stroke-width:.15659353;stroke-linecap:round;stroke-linejoin:round;stroke-miterlimit:4;stroke-opacity:1;stroke-dasharray:none;stroke-dashoffset:0"/><path id="path3880" d="m 17.360392,10.869671 c -0.02975,-0.419293 -0.0746,-0.8916178 -0.09966,-1.049612 -0.09545,-0.6017413 -0.266863,-1.4085221 -0.387319,-1.8230097 l -0.125224,-0.4308932 0.191652,0 c 0.290963,0 2.970342,-0.2100426 3.685153,-0.2888875 0.346481,-0.038218 0.654992,-0.059883 0.685581,-0.048145 0.154769,0.05939 0.849604,1.3575794 1.098031,2.0514979 0.227963,0.6367571 0.465565,1.7672885 0.468647,2.2298645 l 8.09e-4,0.121534 -2.731791,0 -2.731792,0 -0.05409,-0.762349 z" transform="translate(0,8)" style="opacity:.98999999;fill:url(#linearGradient4092);fill-opacity:1;fill-rule:evenodd;stroke:#fff;stroke-width:.15659353;stroke-linecap:round;stroke-linejoin:round;stroke-miterlimit:4;stroke-opacity:1;stroke-dasharray:none;stroke-dashoffset:0"/><path id="path3882" d="m 20.690454,16.819419 c -0.588755,-0.07208 -3.232232,-0.281606 -3.563571,-0.282449 -0.130421,-3.32e-4 -0.278476,-0.01171 -0.329013,-0.02528 l -0.09188,-0.02467 0.105741,-0.361422 c 0.261971,-0.895414 0.458958,-2.002436 0.539693,-3.032956 0.02561,-0.326924 0.04657,-0.610319 0.04657,-0.629767 0,-0.01945 1.233017,-0.03536 2.740039,-0.03536 l 2.740038,0 -8.08e-4,0.143631 c -0.0029,0.513667 -0.279076,1.765285 -0.529531,2.39978 -0.319554,0.809545 -0.959812,1.925634 -1.098052,1.914106 -0.0402,-0.0034 -0.291846,-0.03288 -0.55922,-0.06561 z" transform="translate(0,8)" style="opacity:.98999999;fill:url(#linearGradient4094);fill-opacity:1;fill-rule:evenodd;stroke:#fff;stroke-width:.15659353;stroke-linecap:round;stroke-linejoin:round;stroke-miterlimit:4;stroke-opacity:1;stroke-dasharray:none;stroke-dashoffset:0"/><path id="path3884" d="M 11.828932,21.184265 C 11.272007,20.858178 10.875826,20.5421 10.30313,19.966961 9.608004,19.26887 9.1428893,18.624102 8.7078069,17.755436 l -0.2447508,-0.488659 0.6999125,-0.03501 c 0.8555984,-0.0428 6.3142634,-0.02223 6.3604524,0.02396 0.07252,0.07253 -0.57841,1.294178 -1.010585,1.896624 -0.531634,0.741093 -1.1144,1.313872 -1.821528,1.790314 -0.244243,0.164564 -0.619818,0.374352 -0.650103,0.363133 -0.007,-0.0026 -0.102568,-0.0573 -0.212273,-0.121534 l 0,0 z" transform="translate(0,8)" style="opacity:.98999999;fill:url(#linearGradient4096);fill-opacity:1;fill-rule:evenodd;stroke:#fff;stroke-width:.15659353;stroke-linecap:round;stroke-linejoin:round;stroke-miterlimit:4;stroke-opacity:1;stroke-dasharray:none;stroke-dashoffset:0"/><path id="path3886" d="M 2.5446264,16.548622 C 1.8487478,15.475295 1.3172783,13.950614 1.2356054,12.793298 l -0.025814,-0.365783 2.7399836,0 2.7399836,0 0.026047,0.585573 c 0.043875,0.986377 0.2233751,2.100532 0.4930647,3.060447 0.061461,0.218761 0.1119947,0.412663 0.112297,0.430893 3.093e-4,0.01823 -0.1138036,0.03324 -0.2535676,0.03335 -0.3455472,2.83e-4 -2.9359629,0.203946 -3.6449565,0.286573 -0.3151202,0.03673 -0.5916237,0.06677 -0.6144519,0.06677 -0.022828,0 -0.1414325,-0.154127 -0.2635649,-0.342505 z" transform="translate(0,8)" style="opacity:.98999999;fill:url(#linearGradient4098);fill-opacity:1;fill-rule:evenodd;stroke:#fff;stroke-width:.15659353;stroke-linecap:round;stroke-linejoin:round;stroke-miterlimit:4;stroke-opacity:1;stroke-dasharray:none;stroke-dashoffset:0"/><path id="path3888" d="m 1.2229202,11.438685 c 0,-0.299816 0.170609,-1.232817 0.313207,-1.7128199 0.2174032,-0.7318068 0.6099687,-1.5734182 1.05928,-2.2709639 l 0.1712969,-0.2659346 0.6533701,0.073879 c 0.3593536,0.040633 1.400647,0.1299552 2.3139853,0.1984928 L 7.394675,7.5859521 7.310992,7.8522677 C 7.0455627,8.6969805 6.8287447,9.877255 6.7404545,10.958059 l -0.055055,0.673961 -2.7312395,0 -2.7312395,0 0,-0.193335 z" transform="translate(0,8)" style="opacity:.98999999;fill:url(#linearGradient4100);fill-opacity:1;fill-rule:evenodd;stroke:#fff;stroke-width:.15659353;stroke-linecap:round;stroke-linejoin:round;stroke-miterlimit:4;stroke-opacity:1;stroke-dasharray:none;stroke-dashoffset:0"/></g><g style="display:inline" id="g3772" transform="matrix(0.69230769,0,0,0.69230769,1.8143748,9.8046478)"><rect id="rect3563" width="13" height="13" x="19" y="19" rx="2.615" ry="2.615" style="fill:#5a8c5a;fill-opacity:1;stroke:#555753;stroke-width:0;stroke-linejoin:round;stroke-miterlimit:4;stroke-opacity:1;stroke-dasharray:none;display:inline"/><path style="fill:#fff;fill-opacity:1;fill-rule:evenodd;stroke:#fff;stroke-width:2.5999999;stroke-linecap:round;stroke-linejoin:round;stroke-miterlimit:4;stroke-opacity:1;stroke-dasharray:none;stroke-dashoffset:0;marker:none;visibility:visible;display:inline;overflow:visible;enable-background:accumulate" id="path3807" d="m 21.6,25.499999 7.8,0"/><path id="path3809" d="M 25.5,29.399999 25.5,21.6" style="fill:#fff;fill-opacity:1;fill-rule:evenodd;stroke:#fff;stroke-width:2.5999999;stroke-linecap:round;stroke-linejoin:round;stroke-miterlimit:4;stroke-opacity:1;stroke-dasharray:none;stroke-dashoffset:0;marker:none;visibility:visible;display:inline;overflow:visible;enable-background:accumulate"/><path id="path6992" d="m 20.3,25.499999 10.4,0 c 0,0 0,0 0,-2.6 C 30.7,20.3 30.05,20.3 25.5,20.3 c -4.55,0 -5.2,0 -5.2,2.599999 0,2.6 0,2.6 0,2.6 z" style="opacity:.3;fill:#fcffff;fill-rule:evenodd;stroke:none;display:inline;enable-background:new"/></g></g></svg>